<?xml version="1.0" encoding="utf-8"?>
<!-- Generator: Adobe Illustrator 25.0.0, SVG Export Plug-In . SVG Version: 6.00 Build 0)  -->
<svg version="1.1" id="Layer_1" xmlns="http://www.w3.org/2000/svg" xmlns:xlink="http://www.w3.org/1999/xlink" x="0px" y="0px"
	 viewBox="0 110 380 130" style="enable-background:new 0 0 378.2 378.2;" xml:space="preserve" fill="#FFFFFF">
<style type="text/css">
	.st0{fill:#58595B;visibility:hidden;}
</style>
<g>
	<g transform="translate(163.702998, 248.948069)">
	</g>
</g>
<g>
	<g transform="translate(180.796579, 248.948069)">
	</g>
</g>
<g>
	<g>
		<g>
			<g transform="translate(80.839379, 248.948069)">
				<g>
					<path class="st0" d="M-57.1,3.5v-9.4h1.1v8.4h4.2v1H-57.1z"/>
				</g>
			</g>
		</g>
		<g>
			<g transform="translate(89.627777, 248.948069)">
				<g>
					<path class="st0" d="M-54.3,3.5v-9.4h1.1v9.4H-54.3z"/>
				</g>
			</g>
		</g>
		<g>
			<g transform="translate(96.01477, 248.948069)">
				<g>
					<path class="st0" d="M-48.3-5c-1,0-1.8,0.3-2.4,1c-0.6,0.7-0.9,1.6-0.9,2.8c0,1.2,0.3,2.2,0.9,2.8c0.6,0.7,1.4,1,2.5,1
						c0.7,0,1.4-0.1,2.2-0.3v0.9c-0.7,0.2-1.5,0.4-2.4,0.4c-1.4,0-2.5-0.4-3.2-1.3c-0.8-0.8-1.1-2-1.1-3.6c0-1,0.2-1.8,0.5-2.6
						c0.4-0.7,0.9-1.3,1.6-1.7C-50-5.8-49.2-6-48.2-6c1,0,1.9,0.2,2.6,0.5l-0.5,0.9C-46.8-4.9-47.6-5-48.3-5z"/>
				</g>
			</g>
		</g>
		<g>
			<g transform="translate(105.92089, 248.948069)">
				<g>
					<path class="st0" d="M-43.9,3.5h-5.2v-9.4h5.2v1h-4.2v3h3.9v1h-3.9v3.5h4.2V3.5z"/>
				</g>
			</g>
		</g>
		<g>
			<g transform="translate(115.080236, 248.948069)">
				<g>
					<path class="st0" d="M-38.9,3.5h-1.3l-5.1-7.9h0c0.1,0.9,0.1,1.8,0.1,2.5v5.3h-1v-9.4h1.2l5.1,7.9h0c0-0.1,0-0.5-0.1-1.1
						c0-0.6,0-1.1,0-1.4v-5.4h1V3.5z"/>
				</g>
			</g>
		</g>
		<g>
			<g transform="translate(126.216344, 248.948069)">
				<g>
					<path class="st0" d="M-37.4,1c0,0.8-0.3,1.5-0.9,2c-0.6,0.5-1.4,0.7-2.4,0.7c-1.1,0-2-0.1-2.6-0.4v-1c0.4,0.2,0.8,0.3,1.3,0.4
						c0.5,0.1,0.9,0.1,1.4,0.1c0.7,0,1.3-0.1,1.6-0.4c0.4-0.3,0.6-0.7,0.6-1.2c0-0.3-0.1-0.6-0.2-0.8c-0.1-0.2-0.3-0.4-0.7-0.6
						c-0.3-0.2-0.8-0.4-1.4-0.6c-0.9-0.3-1.5-0.7-1.9-1.1c-0.4-0.4-0.6-1-0.6-1.7c0-0.7,0.3-1.3,0.8-1.7c0.5-0.4,1.3-0.6,2.2-0.6
						c0.9,0,1.8,0.2,2.6,0.5L-38-4.6C-38.8-4.9-39.5-5-40.3-5c-0.6,0-1,0.1-1.4,0.4c-0.3,0.2-0.5,0.6-0.5,1c0,0.3,0.1,0.6,0.2,0.8
						c0.1,0.2,0.3,0.4,0.6,0.6c0.3,0.2,0.7,0.3,1.3,0.6c1,0.4,1.7,0.7,2,1.2C-37.6-0.1-37.4,0.4-37.4,1z"/>
				</g>
			</g>
		</g>
		<g>
			<g transform="translate(135.302472, 248.948069)">
				<g>
					<path class="st0" d="M-39.9,3.5v-9.4h1.1v9.4H-39.9z"/>
				</g>
			</g>
		</g>
		<g>
			<g transform="translate(141.689465, 248.948069)">
				<g>
					<path class="st0" d="M-30.5,3.5h-1.3l-5.1-7.9h0c0.1,0.9,0.1,1.8,0.1,2.5v5.3h-1v-9.4h1.2l5.1,7.9h0c0-0.1,0-0.5-0.1-1.1
						c0-0.6,0-1.1,0-1.4v-5.4h1V3.5z"/>
				</g>
			</g>
		</g>
		<g>
			<g transform="translate(152.825572, 248.948069)">
				<g>
					<path class="st0" d="M-30.2-1.4h3.2v4.6c-0.5,0.2-1,0.3-1.5,0.3c-0.5,0.1-1.1,0.1-1.8,0.1c-1.4,0-2.5-0.4-3.3-1.3
						c-0.8-0.8-1.2-2-1.2-3.6c0-1,0.2-1.8,0.6-2.6c0.4-0.7,1-1.3,1.7-1.7c0.7-0.4,1.6-0.6,2.6-0.6c1,0,1.9,0.2,2.8,0.5l-0.4,1
						C-28.4-4.9-29.2-5-30-5c-1.2,0-2.1,0.3-2.7,1c-0.6,0.7-1,1.6-1,2.8c0,1.3,0.3,2.2,0.9,2.9c0.6,0.7,1.5,1,2.7,1
						c0.7,0,1.3-0.1,1.9-0.2v-2.9h-2.1V-1.4z"/>
				</g>
			</g>
		</g>
		<g>
			<g transform="translate(169.89963, 248.948069)">
				<g>
					<path class="st0" d="M-27.5-4c0,0.3,0.1,0.6,0.2,0.9c0.2,0.3,0.4,0.6,0.8,0.9c0.5-0.3,0.9-0.6,1.2-0.9C-25.2-3.4-25-3.7-25-4
						c0-0.3-0.1-0.6-0.3-0.8c-0.2-0.2-0.5-0.3-0.9-0.3c-0.4,0-0.7,0.1-0.9,0.3C-27.4-4.6-27.5-4.4-27.5-4z M-26.5,2.7
						c1,0,1.9-0.3,2.6-1L-26.8-1c-0.5,0.3-0.8,0.5-1,0.7c-0.2,0.2-0.3,0.4-0.4,0.6c-0.1,0.2-0.1,0.5-0.1,0.7c0,0.5,0.2,0.9,0.5,1.2
						C-27.5,2.5-27.1,2.7-26.5,2.7z M-29.5,1.1c0-0.6,0.1-1.1,0.5-1.5c0.3-0.4,0.8-0.9,1.6-1.3c-0.4-0.4-0.6-0.7-0.8-0.9
						c-0.1-0.2-0.2-0.4-0.3-0.7c-0.1-0.2-0.1-0.5-0.1-0.7c0-0.6,0.2-1.1,0.6-1.5c0.4-0.4,1-0.5,1.8-0.5c0.7,0,1.2,0.2,1.6,0.5
						C-24.2-5.1-24-4.6-24-4c0,0.5-0.2,0.9-0.5,1.3c-0.3,0.4-0.8,0.8-1.4,1.2l2.6,2.5c0.2-0.3,0.4-0.6,0.6-0.9
						c0.1-0.4,0.3-0.8,0.4-1.2h1.1C-21.5,0.1-22,1-22.5,1.6l1.9,1.9h-1.5l-1.2-1.2c-0.5,0.5-1,0.8-1.6,1c-0.5,0.2-1.1,0.3-1.7,0.3
						c-0.9,0-1.7-0.2-2.2-0.7C-29.2,2.5-29.5,1.9-29.5,1.1z"/>
				</g>
			</g>
		</g>
		<g>
			<g transform="translate(186.993211, 248.948069)">
				<g>
					<path class="st0" d="M-19.3,3.5l-3.2-8.3h0c0.1,0.7,0.1,1.4,0.1,2.3v6h-1v-9.4h1.6l3,7.8h0l3-7.8h1.6v9.4h-1.1v-6
						c0-0.7,0-1.4,0.1-2.3h-0.1l-3.2,8.3H-19.3z"/>
				</g>
			</g>
		</g>
		<g>
			<g transform="translate(199.618001, 248.948069)">
				<g>
					<path class="st0" d="M-11.4-1.2c0,1.5-0.4,2.7-1.2,3.6c-0.8,0.9-1.8,1.3-3.1,1.3c-1.4,0-2.5-0.4-3.2-1.3
						c-0.8-0.8-1.1-2-1.1-3.6c0-1.5,0.4-2.7,1.1-3.5C-18.1-5.6-17-6-15.7-6c1.4,0,2.4,0.4,3.2,1.3C-11.7-3.9-11.4-2.7-11.4-1.2z
						 M-18.8-1.2c0,1.3,0.3,2.2,0.8,2.9c0.5,0.7,1.3,1,2.4,1c1,0,1.8-0.3,2.3-1c0.5-0.7,0.8-1.6,0.8-2.9c0-1.3-0.3-2.2-0.8-2.9
						c-0.5-0.7-1.3-1-2.3-1c-1,0-1.8,0.3-2.4,1C-18.6-3.4-18.8-2.5-18.8-1.2z"/>
				</g>
			</g>
		</g>
		<g>
			<g transform="translate(211.00304, 248.948069)">
				<g>
					<path class="st0" d="M-8.6,3.5h-1.3L-15-4.4h0c0.1,0.9,0.1,1.8,0.1,2.5v5.3h-1v-9.4h1.2L-9.5,2h0c0-0.1,0-0.5-0.1-1.1
						c0-0.6,0-1.1,0-1.4v-5.4h1V3.5z"/>
				</g>
			</g>
		</g>
		<g>
			<g transform="translate(222.139148, 248.948069)">
				<g>
					<path class="st0" d="M-7.1,3.5h-5.2v-9.4h5.2v1h-4.2v3h3.9v1h-3.9v3.5h4.2V3.5z"/>
				</g>
			</g>
		</g>
		<g>
			<g transform="translate(231.298495, 248.948069)">
				<g>
					<path class="st0" d="M-6.6,3.5h-1.1v-8.4h-3v-1h7v1h-3V3.5z"/>
				</g>
			</g>
		</g>
		<g>
			<g transform="translate(240.428556, 248.948069)">
				<g>
					<path class="st0" d="M-6.6,3.5v-9.4h1.1v9.4H-6.6z"/>
				</g>
			</g>
		</g>
		<g>
			<g transform="translate(246.815549, 248.948069)">
				<g>
					<path class="st0" d="M1.1,3.5h-6.5V2.6l5-7.5h-4.8v-1H1V-5l-5,7.5h5.1V3.5z"/>
				</g>
			</g>
		</g>
		<g>
			<g transform="translate(256.121323, 248.948069)">
				<g>
					<path class="st0" d="M4.3,3.5l-1.2-3h-3.8l-1.2,3h-1.1l3.7-9.4h0.9l3.7,9.4H4.3z M2.8-0.5L1.7-3.4C1.5-3.7,1.4-4.2,1.2-4.7
						C1.1-4.3,1-3.9,0.8-3.4l-1.1,2.9H2.8z"/>
				</g>
			</g>
		</g>
		<g>
			<g transform="translate(266.046966, 248.948069)">
				<g>
					<path class="st0" d="M4.4,3.5H3.3v-8.4h-3v-1h7v1h-3V3.5z"/>
				</g>
			</g>
		</g>
		<g>
			<g transform="translate(275.177028, 248.948069)">
				<g>
					<path class="st0" d="M4.4,3.5v-9.4h1.1v9.4H4.4z"/>
				</g>
			</g>
		</g>
		<g>
			<g transform="translate(281.564021, 248.948069)">
				<g>
					<path class="st0" d="M14.6-1.2c0,1.5-0.4,2.7-1.2,3.6c-0.8,0.9-1.8,1.3-3.1,1.3c-1.4,0-2.5-0.4-3.2-1.3c-0.8-0.8-1.1-2-1.1-3.6
						c0-1.5,0.4-2.7,1.1-3.5C7.8-5.6,8.9-6,10.3-6c1.4,0,2.4,0.4,3.2,1.3C14.2-3.9,14.6-2.7,14.6-1.2z M7.1-1.2
						c0,1.3,0.3,2.2,0.8,2.9c0.5,0.7,1.3,1,2.4,1c1,0,1.8-0.3,2.3-1c0.5-0.7,0.8-1.6,0.8-2.9c0-1.3-0.3-2.2-0.8-2.9
						c-0.5-0.7-1.3-1-2.3-1c-1,0-1.8,0.3-2.4,1C7.3-3.4,7.1-2.5,7.1-1.2z"/>
				</g>
			</g>
		</g>
		<g>
			<g transform="translate(292.94906, 248.948069)">
				<g>
					<path class="st0" d="M17.4,3.5h-1.3L11-4.4h0C11-3.4,11-2.6,11-1.8v5.3h-1v-9.4h1.2L16.4,2h0c0-0.1,0-0.5-0.1-1.1
						c0-0.6,0-1.1,0-1.4v-5.4h1V3.5z"/>
				</g>
			</g>
		</g>
	</g>
	<g>
		<g>
			<g>
				<g transform="translate(81.158809, 225.100972)">
					<g>
						<path d="M-48.4-13.3v-16.5c0,0,3.4,0,10.2,0c1.7,0,3.1,0.8,4.2,2.4c1.2,1.6,1.8,3.6,1.8,5.8c0,2.3-0.6,4.2-1.8,5.8
							c-1.2,1.6-2.6,2.4-4.2,2.4H-48.4z M-46.9-14.8h8.7c1.2,0,2.3-0.7,3.2-2c0.9-1.3,1.3-2.9,1.3-4.8c0-1.9-0.4-3.5-1.3-4.8
							c-0.9-1.3-1.9-2-3.2-2h-8.7V-14.8z M-49.9-11.8h11.7c2.1,0,3.8-0.9,5.3-2.9c1.5-1.9,2.3-4.2,2.3-6.9c0-1.8-0.3-3.4-1-4.9
							c-0.7-1.5-1.6-2.7-2.8-3.5c-1.2-0.9-2.4-1.3-3.8-1.3h-11.7V-11.8z M-51.4-10.3v-22.5h13.2c1.6,0,3.1,0.5,4.5,1.5
							c1.4,1,2.5,2.4,3.3,4.1c0.8,1.7,1.2,3.6,1.2,5.6c0,2-0.4,3.9-1.2,5.6c-0.8,1.7-1.9,3.1-3.3,4.1c-1.4,1-2.9,1.5-4.5,1.5H-51.4z
							 M-52.9-8.8h14.7c1.9,0,3.7-0.6,5.3-1.7c1.6-1.1,2.9-2.7,3.9-4.6c1-2,1.5-4.1,1.5-6.4c0-2.3-0.5-4.4-1.5-6.4
							c-1-2-2.3-3.5-3.9-4.7c-1.6-1.1-3.4-1.7-5.3-1.7h-14.7V-8.8z M-54.4-7.3v-28.5h16.2c2.2,0,4.2,0.6,6.1,1.9
							c1.9,1.3,3.4,3,4.5,5.2c1.1,2.2,1.7,4.6,1.7,7.1c0,2.6-0.6,5-1.7,7.1c-1.1,2.2-2.6,3.9-4.5,5.2C-34-7.9-36-7.3-38.2-7.3H-54.4
							z M-55.9-5.8h17.7c1.8,0,3.6-0.4,5.3-1.2c1.7-0.8,3.2-1.9,4.4-3.4c1.2-1.4,2.2-3.1,3-5c0.8-2,1.1-4,1.1-6.1s-0.4-4.2-1.1-6.1
							c-0.7-1.9-1.7-3.6-3-5c-1.2-1.4-2.7-2.5-4.4-3.4c-1.7-0.8-3.5-1.2-5.3-1.2h-17.7V-5.8z M-38.2-4.3h-19.2v-34.5h19.2
							c2.7,0,5.2,0.8,7.6,2.3c2.3,1.5,4.2,3.6,5.6,6.3c1.4,2.7,2.1,5.5,2.1,8.6c0,2.3-0.4,4.6-1.2,6.7c-0.8,2.1-1.9,4-3.3,5.5
							s-3,2.8-4.9,3.7C-34.2-4.8-36.1-4.3-38.2-4.3z"/>
					</g>
				</g>
			</g>
			<g>
				<g transform="translate(109.511258, 225.100972)">
					<g>
						<path d="M-40.4-4.3h-1.5v-34.5h1.5V-4.3z M-43.4-4.3h-1.5v-34.5h1.5V-4.3z M-46.4-4.3h-1.5v-34.5h1.5V-4.3z M-37.4-11.8h16
							v1.5h-16v1.5h16v1.5h-16v1.5h16v1.5h-17.5v-34.5h17.5v1.5h-16v1.5h16v1.5h-16v1.5h16v1.5h-16v6h8.2v1.5h-8.2v1.5h8.2v1.5h-8.2
							v1.5h8.2v1.5h-8.2V-11.8z"/>
					</g>
				</g>
			</g>
			<g>
				<g transform="translate(132.115112, 225.100972)">
					<g>
						<path d="M-15.6-16.9l1.5-2.8v15.4h-1.5V-16.9z M-12.6-22.6l1.5-2.8v21.2h-1.5V-22.6z M-9.6-28.3l1.5-2.9v26.9h-1.5V-28.3z
							 M-19.6-17.6l-0.9-1.6l10.3-19.6h1.7L-19.6-17.6z M-21.4-20.9l-0.9-1.6l8.7-16.4h1.7L-21.4-20.9z M-31.4-19.6l1.5,2.8v12.4
							h-1.5V-19.6z M-34.4-25.3l1.5,2.8v18.1h-1.5V-25.3z M-37.4-31l1.5,2.9v23.8h-1.5V-31z M-25.3-13.3H-27L-38.9-36v31.6h-1.5
							v-34.5h1.7L-25.3-13.3z M-21.9-13.3h-1.7L-37-38.8h1.7L-21.9-13.3z M-6.6-36l-11.9,22.6h-1.7l-13.4-25.5h1.7l12.6,23.9
							l12.6-23.9h1.7v34.5h-1.5V-36z"/>
					</g>
				</g>
			</g>
			<g>
				<g transform="translate(161.576666, 225.100972)">
					<g>
						<path d="M-6.3-19.5v-19.3h1.5v19.3c0,2.1-0.8,3.9-2.5,5.4s-3.7,2.2-6,2.2s-4.3-0.8-6-2.2c-1.7-1.5-2.5-3.3-2.5-5.4v-19.3h1.5
							v19.3c0,1.7,0.7,3.1,2,4.4c1.4,1.2,3,1.8,5,1.8c1.9,0,3.6-0.6,4.9-1.8C-7-16.3-6.3-17.8-6.3-19.5z M-3.3-19.5v-19.3h1.5v19.3
							c0,1.4-0.3,2.8-0.9,4.1c-0.6,1.3-1.4,2.4-2.5,3.4c-1,1-2.2,1.7-3.7,2.3c-1.4,0.6-2.9,0.8-4.5,0.8c-1.6,0-3-0.3-4.5-0.8
							c-1.4-0.6-2.6-1.3-3.7-2.3c-1-1-1.8-2.1-2.5-3.4c-0.6-1.3-0.9-2.7-0.9-4.1v-19.3h1.5v19.3c0,1.7,0.4,3.2,1.3,4.6
							c0.9,1.4,2.1,2.5,3.6,3.3c1.5,0.8,3.2,1.2,5,1.2c1.8,0,3.5-0.4,5-1.2c1.5-0.8,2.8-1.9,3.6-3.3C-3.8-16.3-3.3-17.8-3.3-19.5z
							 M-0.3-19.5v-19.3h1.5v19.3c0,1.8-0.4,3.6-1.2,5.3C-0.7-12.5-1.8-11-3-9.8c-1.3,1.2-2.8,2.2-4.6,2.9c-1.8,0.7-3.7,1.1-5.6,1.1
							s-3.8-0.4-5.6-1.1c-1.8-0.7-3.3-1.7-4.6-2.9c-1.3-1.2-2.3-2.7-3.1-4.4c-0.8-1.7-1.1-3.5-1.1-5.3v-19.3h1.5v19.3
							c0,2.2,0.6,4.2,1.8,6.1c1.2,1.9,2.7,3.3,4.7,4.4c2,1.1,4.2,1.6,6.5,1.6c2.3,0,4.5-0.5,6.5-1.6c2-1.1,3.6-2.6,4.8-4.4
							C-0.9-15.3-0.3-17.3-0.3-19.5z M2.7-19.5v-19.3h1.5v19.3c0,3-0.8,5.8-2.4,8.4C0.3-8.6-1.9-6.5-4.5-5c-2.7,1.5-5.6,2.2-8.8,2.2
							c-3.2,0-6.1-0.7-8.8-2.2c-2.7-1.5-4.8-3.5-6.4-6.1c-1.6-2.6-2.4-5.4-2.4-8.4v-19.3h1.5v19.3c0,2,0.4,4,1.3,5.9
							c0.8,1.9,2,3.5,3.4,4.9c1.4,1.3,3.1,2.4,5.1,3.2c2,0.8,4.1,1.2,6.2,1.2c2.2,0,4.2-0.4,6.2-1.2c2-0.8,3.7-1.9,5.1-3.2
							c1.4-1.4,2.6-3,3.4-4.9C2.3-15.5,2.7-17.4,2.7-19.5z"/>
					</g>
				</g>
			</g>
			<g>
				<g transform="translate(190.538341, 225.100972)">
					<g>
						<path d="M-7-25.3h-2.5c-1.1,0-1.8-0.3-2.3-0.8c-0.5-0.6-0.7-1.3-0.7-2.2c0-2,1.5-3,4.5-3c2.8,0,4.9,0.4,6.3,1.2l-1.2,0.9
							c-1-0.4-2.7-0.7-5.1-0.7c-1.2,0-2,0.1-2.4,0.4c-0.4,0.3-0.6,0.6-0.6,1.1c0,0.5,0.1,0.8,0.3,1.1c0.2,0.3,0.6,0.4,1.2,0.4h2.6
							c1.9,0,3.6,0.3,5.1,1c1.5,0.6,2.8,1.5,3.7,2.6c1,1.1,1.7,2.4,2.2,3.8c0.5,1.4,0.8,3,0.8,4.6c0,1.3-0.2,2.6-0.6,3.8
							C3.9-9.8,3.3-8.7,2.6-7.7c-0.7,1-1.7,1.9-2.7,2.6c-1.1,0.7-2.3,1.3-3.8,1.7C-5.4-3-7-2.8-8.7-2.8c-2.7,0-5.2-0.4-7.5-1.2
							c-2.3-0.8-4.3-1.9-5.8-3.4l1.2-0.9c1.4,1.3,3.2,2.3,5.3,3c2.1,0.7,4.4,1,6.9,1c1.9,0,3.6-0.3,5.1-0.8C-2-5.7-0.7-6.4,0.3-7.4
							c1-1,1.8-2.1,2.3-3.3c0.5-1.3,0.8-2.6,0.8-4.1c0-1.9-0.4-3.7-1.2-5.2c-0.8-1.6-2-2.8-3.6-3.8C-3-24.8-4.8-25.3-7-25.3z
							 M-9.5-23.8h2.4c2.8,0,5,0.9,6.6,2.6c1.6,1.7,2.4,3.9,2.4,6.4c0,2.6-0.9,4.8-2.8,6.5c-1.8,1.7-4.4,2.5-7.8,2.5
							c-2.2,0-4.3-0.3-6.2-0.9c-1.9-0.6-3.5-1.5-4.8-2.6l1.2-0.9c1.1,0.9,2.6,1.7,4.3,2.2c1.7,0.5,3.6,0.8,5.6,0.8
							C-5.8-7.3-3.5-8-2-9.4c1.6-1.4,2.3-3.2,2.3-5.4c0-2.2-0.7-4-2-5.4c-1.3-1.4-3.1-2.1-5.6-2.1h-2.4c-2,0-3.6-0.6-4.6-1.7
							c-1-1.1-1.5-2.6-1.5-4.3c0-1.8,0.6-3.2,1.9-4.3c1.3-1.1,3.2-1.7,5.7-1.7c1.8,0,3.4,0.2,4.9,0.6c1.5,0.4,2.8,1,3.8,1.7L-0.6-31
							c-1.7-1.2-4.2-1.8-7.5-1.8c-2.1,0-3.6,0.4-4.6,1.2c-1,0.8-1.4,1.9-1.4,3.2c0,1.4,0.4,2.5,1.1,3.3
							C-12.3-24.2-11.1-23.8-9.5-23.8z M-9.5-20.8h2.3c2,0,3.5,0.6,4.6,1.7c1,1.1,1.5,2.6,1.5,4.3c0,1.8-0.6,3.2-1.9,4.3
							c-1.3,1.1-3.1,1.7-5.6,1.7c-1.8,0-3.4-0.2-4.9-0.6c-1.5-0.4-2.8-1-3.8-1.8l1.2-0.9c1.7,1.2,4.2,1.8,7.5,1.8
							c2.1,0,3.6-0.4,4.6-1.2c1-0.8,1.5-1.9,1.5-3.3c0-1.3-0.4-2.4-1.1-3.3c-0.7-0.8-1.9-1.2-3.5-1.2h-2.3c-2.8,0-5.1-0.8-6.7-2.5
							c-1.6-1.7-2.4-3.9-2.4-6.5c0-2.6,0.9-4.7,2.8-6.4c1.8-1.7,4.4-2.6,7.8-2.6c2.2,0,4.3,0.3,6.2,0.9c1.9,0.6,3.5,1.5,4.8,2.6
							l-1.2,0.9c-1.1-0.9-2.6-1.7-4.3-2.2c-1.7-0.5-3.6-0.8-5.6-0.8c-2.9,0-5.2,0.7-6.7,2.1c-1.5,1.4-2.3,3.2-2.3,5.4
							c0,2.2,0.7,4,2,5.4C-13.8-21.5-12-20.8-9.5-20.8z M-9.5-17.8h2.3c1.1,0,1.8,0.3,2.3,0.8c0.5,0.6,0.7,1.3,0.7,2.2
							c0,2-1.5,3-4.5,3c-2.8,0-4.9-0.4-6.4-1.2l1.2-0.9c1,0.4,2.7,0.7,5.1,0.7c1.2,0,2-0.1,2.4-0.4c0.4-0.3,0.6-0.6,0.6-1.1
							c0-0.5-0.1-0.8-0.4-1.1c-0.2-0.3-0.6-0.4-1.2-0.4h-2.3c-1.9,0-3.7-0.3-5.2-0.9c-1.5-0.6-2.8-1.5-3.8-2.6
							c-1-1.1-1.7-2.4-2.3-3.8c-0.5-1.4-0.8-3-0.8-4.7c0-1.3,0.2-2.6,0.6-3.8c0.4-1.2,0.9-2.3,1.7-3.3c0.8-1,1.7-1.9,2.7-2.6
							c1.1-0.7,2.3-1.3,3.8-1.7c1.5-0.4,3.1-0.6,4.8-0.6c2.7,0,5.2,0.4,7.5,1.2c2.3,0.8,4.3,1.9,5.8,3.4l-1.2,0.9
							c-1.4-1.3-3.2-2.3-5.3-3c-2.1-0.7-4.4-1.1-6.8-1.1c-1.9,0-3.6,0.3-5.2,0.8c-1.5,0.5-2.8,1.3-3.8,2.2c-1,1-1.8,2.1-2.3,3.3
							c-0.5,1.3-0.8,2.6-0.8,4.1c0,2,0.4,3.7,1.2,5.3c0.8,1.6,2,2.8,3.6,3.8C-13.7-18.3-11.7-17.8-9.5-17.8z"/>
					</g>
				</g>
			</g>
			<g>
				<g transform="translate(212.361136, 225.100972)">
					<g>
						<path d="M-4.7-38.8h1.5v34.5h-1.5V-38.8z M-7.7-38.8h1.5v34.5h-1.5V-38.8z M-10.7-38.8h1.5v34.5h-1.5V-38.8z M-13.7-38.8h1.5
							v34.5h-1.5V-38.8z"/>
					</g>
				</g>
			</g>
			<g>
				<g transform="translate(223.202238, 225.100972)">
					<g>
						<path d="M0.5-4.3H-1v-34.5h16.6v1.5H0.5v1.5h15.1v1.5H0.5v1.5h15.1v1.5H0.5v7.5h14.4v1.5H0.5v1.5h14.4v1.5H0.5v1.5h14.4v1.5
							H0.5V-4.3z M-2.5-4.3H-4v-34.5h1.5V-4.3z M-5.5-4.3H-7v-34.5h1.5V-4.3z M-8.5-4.3H-10v-34.5h1.5V-4.3z"/>
					</g>
				</g>
			</g>
			<g>
				<g transform="translate(245.056275, 225.100972)">
					<g>
						<path d="M8.8-21.7L8-20l-9-18.8h1.5L8.8-21.7z M10.3-25l-0.8,1.6L2-38.8h1.5L10.3-25z M11.8-28.2L11-26.6L5-38.8h1.5
							L11.8-28.2z M9.9-15.9l10.9-22.9h1.5L11.4-15.9v11.6H9.9V-15.9z M12.9-15.9l10.9-22.9h1.5L14.4-15.9v11.6h-1.5V-15.9z
							 M15.9-15.9l10.9-22.9h1.5L17.4-15.9v11.6h-1.5V-15.9z M7.6-17.5l10.1-21.3h1.5L8.4-15.9v11.6H6.9v-11.6L-4-38.8h1.5L7.6-17.5
							z"/>
					</g>
				</g>
			</g>
		</g>
		<path d="M284.8,183c-0.5,3.8-1.4,7.4-2.5,11c-0.1,0.2-0.2,0.4-0.3,0.5c-0.1,0.2-0.7,0.2-0.8,0c-0.1-0.2-0.3-0.4-0.3-0.7
			c-0.4-1.7-0.7-3.3-1-5c-0.3-1.6-0.3-3.3-0.5-5c-0.1-0.9-0.1-1.8-0.2-2.8c-0.2,0.2-0.3,0.2-0.3,0.4c-0.2,0.3-0.3,0.6-0.5,0.9
			c-0.7,1.4-1.6,2.6-2.7,3.6c-0.9,0.8-2,1.4-3.2,1.8c-0.1,0-0.2,0-0.3-0.1c-0.6-0.6-0.1-1,0.4-1.4c0.8,0,1.4-0.4,1.9-0.8
			c0.9-0.7,1.6-1.5,2.2-2.5c1-1.5,1.7-3.2,2-5c0.1-0.5,0.2-1,0.3-1.5c0-0.2,0.1-0.4,0.3-0.5c0.1-0.1,0.2-0.2,0.4-0.2
			c0.2,0,0.4,0.2,0.5,0.3c0,0.1,0.1,0.2,0.1,0.3c0,0.2,0,0.4,0,0.6c0,2.1,0.2,4.1,0.3,6.2c0.1,1.7,0.3,3.3,0.5,5c0.1,1,0.3,2,0.5,3
			c0,0,0.1,0.3,0.1,0.3c0.1,0,0.2-0.2,0.2-0.3c0.2-0.5,0.3-0.9,0.5-1.4c0.6-2.4,1-4.9,1.5-7.4c0.2-1.4,0.4-2.9,0.6-4.3
			c0-0.2,0-0.4,0-0.6c0.1-1.7,0.2-3.4,0.3-5.1c0-0.1,0-0.2,0-0.3c0-0.3,0.3-0.5,0.5-0.5c0.2,0,0.5,0.2,0.6,0.4
			c0,0.2,0.1,0.4,0.1,0.6c0.2,2,0.3,3.9,0.5,5.9c0,0.1,0,0.2,0,0.3c0.1,1.9,0.3,3.8,0.4,5.7c0.2,2.2,0.4,4.4,0.6,6.6
			c0,0,0,0.1,0.1,0.2c0.3-0.3,0.4-0.7,0.4-1.1c0.5-2.8,1.1-5.5,1.6-8.3c0.6-3.2,1.2-6.3,2.1-9.4c0.1-0.4,0.2-0.9,0.4-1.3
			c0.1-0.1,0.3-0.2,0.4-0.1c0.1,0,0.3,0.1,0.3,0.2c0.1,0.3,0.1,0.6,0.1,0.9c0,3.2,0,6.3,0,9.5c0,2.8-0.1,5.6-0.1,8.5
			c0,0.4-0.1,0.8,0.1,1.2c0.4-0.9,0.5-1.7,0.7-2.5c0.8-3.4,1.6-6.8,2.4-10.3c0.4-1.6,0.7-3.1,1-4.7c0.1-0.4,0.2-0.8,0.4-1.1
			c0.1-0.3,0.6-0.3,0.8,0c0.1,0.1,0.2,0.3,0.2,0.4c0,0.2,0,0.5,0,0.8c-0.2,2.1-0.1,4.2-0.1,6.3c0.3,1.8,0.1,3.6,0.3,5.4
			c0.1,1.3,0.2,2.5,0.3,3.8c0,0.4,0.2,0.8,0.2,1.2c0,0.1,0.1,0.3,0.2,0.5c0.1-1,0.3-1.9,0.4-2.8c0.1-0.7,0.2-1.5,0.3-2.2
			c0.4-2.4,1-4.8,1.6-7.2c0.2-0.6,0.3-1.3,0.5-1.9c0.1-0.3,0.3-0.6,0.4-0.9c0.1-0.1,0.3-0.1,0.4-0.2c0.2,0,0.4,0.2,0.5,0.3
			c0,0.3,0.1,0.6,0.1,0.9c0,1.9,0.1,3.8,0.1,5.7c0,0.7,0,1.3,0.1,2c0.1,0.7,0.1,1.4,0.1,2.1c0,0.5,0,0.9,0.1,1.4
			c0,0.1,0.1,0.3,0.2,0.4c0.1,0.1,0.2,0,0.3-0.3c0.6-2,1.1-4.1,1.5-6.1c0.2-1.2,0.5-2.5,0.7-3.7c0.2-1.1,0.3-2.2,0.5-3.3
			c0.4-2.2,0.5-4.5,0.8-6.7c0-0.1,0-0.2,0-0.3c0.1-1.9,0.2-3.8,0.4-5.7c0.2-2.3,0.3-4.5,0.5-6.8c0-0.1,0-0.2,0-0.3c0-2,0.2-4,0.4-6
			c0.1-1.7,0.2-3.4,0.5-5.1c0.1-0.9,0.1-1.8,0.3-2.7c0.2-1.3,0.3-2.6,0.4-3.9c0.2-1.2,0.2-2.4,0.5-3.6c0.2-0.9,0.3-1.8,0.4-2.7
			c0.2-1.6,0.4-3.3,0.7-4.9c0-0.1,0-0.2,0.1-0.3c0.1-0.2,0.2-0.3,0.4-0.4c0.1-0.1,0.5,0.1,0.5,0.2c0.1,0.3,0.3,0.5,0.4,0.8
			c0.9,2.4,1.9,4.8,2.8,7.2c0.4,1.1,0.9,2.2,1.3,3.4c0.1,0.3,0.4,0.3,0.6,0.1c0.1-0.1,0.3-0.3,0.4-0.4c0.3-0.3,0.6-0.6,1-1
			c1.4-1.4,2.8-2.8,4.2-4.1c0.3-0.2,0.5-0.5,0.8-0.7c0.4-0.3,0.9-0.1,1,0.4c0,0.2,0.1,0.5,0.1,0.8c0,0.8,0.1,1.6,0.2,2.4
			c0.1,0.5,0.1,1.1,0.1,1.7c0,1.2,0,2.3,0,3.5c0,0.2,0,0.4,0.1,0.6c0,0.1,0.1,0.2,0.2,0.1c0.3-0.1,0.5-0.3,0.7-0.5
			c1.2-1.2,2.5-2.4,3.7-3.5c0.4-0.4,0.8-0.7,1.3-1.1c0.2-0.2,0.6-0.2,0.8,0.1c0.3,0.3,0.6,0.6,0.8,1.1c0.3,0.8,0.4,1.6,0.6,2.3
			c0.1,0.6,0.2,1.2,0.3,1.8c0.1,0.3,0.2,0.6,0.3,0.8c0.2,0.3,0.4,0.5,0.8,0.7c0.4,0.1,0.9,0.2,1.3,0.2c1.3,0.1,2.5-0.1,3.7-0.4
			c1.7-0.4,3.3-0.9,4.9-1.6c2.1-0.8,4.1-1.8,6.2-2.8c0.5-0.3,1.1-0.5,1.6-0.8c0.1-0.1,0.3-0.1,0.4-0.1c0.2,0,0.4,0.1,0.5,0.3
			c0.1,0.2,0.1,0.4-0.1,0.6c-0.1,0.1-0.2,0.2-0.3,0.3c-0.4,0.2-0.9,0.4-1.4,0.7c-1.7,0.8-3.4,1.5-5.1,2.3c-1.8,0.8-3.7,1.5-5.7,2.1
			c-0.9,0.3-1.9,0.5-2.8,0.5c-0.7,0-1.3,0-2,0c-0.4,0-0.8,0-1.2-0.1c-1-0.1-1.8-0.7-2.1-1.7c-0.3-0.9-0.5-1.7-0.6-2.6
			c-0.1-0.6-0.2-1.2-0.4-1.8c0-0.1-0.1-0.3-0.2-0.4c-0.1-0.1-0.2-0.1-0.3-0.1c-0.2,0.1-0.3,0.2-0.5,0.4c-1.7,1.6-3.4,3.2-5.2,4.9
			c-0.3,0.2-0.5,0.5-0.8,0.7c-0.3,0.2-0.8,0-0.8-0.4c0-0.5,0-0.9,0-1.4c0-2.3,0-4.6-0.1-6.9c0-0.3-0.1-0.6-0.1-0.9
			c0-0.1-0.3-0.2-0.4-0.1c-0.3,0.3-0.7,0.6-1,0.9c-1.4,1.4-2.9,2.8-4.3,4.3c-0.3,0.3-0.6,0.6-0.9,0.8c-0.3,0.3-0.9,0.2-1-0.2
			c-0.3-0.5-0.5-1.1-0.7-1.7c-0.9-2.3-1.7-4.5-2.6-6.8c-0.2-0.5-0.4-0.9-0.6-1.4c-0.3,0.1-0.4,0.3-0.4,0.5c-0.1,0.7-0.2,1.4-0.3,2.1
			c-0.2,2-0.6,3.9-0.8,5.8c-0.1,1.3-0.3,2.6-0.5,3.9c0,0.1,0,0.3,0,0.5c-0.1,1.6-0.2,3.1-0.4,4.7c-0.2,1.7-0.3,3.3-0.5,5
			c0,0.1,0,0.1,0,0.2c-0.1,2.2-0.3,4.4-0.4,6.6c0,0.8-0.2,1.5-0.2,2.3c-0.1,2.2-0.2,4.4-0.4,6.6c-0.1,1.5-0.1,3-0.4,4.5
			c0,0.2,0,0.4-0.1,0.6c0,1.4-0.3,2.7-0.5,4c-0.2,1.3-0.5,2.7-0.7,4c-0.3,1.7-0.7,3.4-1.1,5.1c-0.3,1-0.6,1.9-0.8,2.9
			c-0.3,1.2-0.8,2.3-1.3,3.4c-0.1,0.1-0.2,0.2-0.3,0.3c-0.3,0.2-0.7,0-0.7-0.3c-0.1-0.4-0.2-0.9-0.3-1.3c-0.2-1.9-0.4-3.9-0.4-5.9
			c0-1-0.1-2-0.1-3c0,0,0-0.1-0.1-0.1c-0.1-0.1-0.2,0-0.2,0.1c0,0.1-0.1,0.2-0.1,0.3c-0.4,1.5-0.7,2.9-0.9,4.4
			c-0.3,1.7-0.6,3.5-0.8,5.2c-0.2,1.1-0.2,2.3-0.4,3.4c0,0.2-0.1,0.4-0.2,0.6c-0.1,0.1-0.2,0.2-0.3,0.3c-0.2,0.1-0.5-0.1-0.5-0.2
			c-0.2-0.4-0.3-0.7-0.4-1.1c-0.2-1-0.4-2-0.6-3c-0.2-1.2-0.3-2.5-0.4-3.7c-0.3-2.2-0.3-4.4-0.3-6.6c0-0.4,0-0.9,0-1.3
			c-0.3,0.2-0.4,0.4-0.4,0.6c-1,4.4-2,8.7-3.1,13c-0.3,1.1-0.6,2.1-0.9,3.2c-0.1,0.2-0.2,0.4-0.3,0.5c-0.1,0.2-0.3,0.2-0.5,0.2
			c-0.2,0-0.4-0.2-0.4-0.4c0-0.5,0-0.9,0-1.4c0-3.3,0-6.6,0.1-10c0.1-2.1,0.1-4.2,0.1-6.3c0-0.7,0-1.3,0-2.1
			c-0.3,0.5-0.4,0.9-0.5,1.4c-0.5,2.2-0.9,4.4-1.3,6.7c-0.5,2.6-1,5.1-1.6,7.7c-0.2,0.7-0.3,1.5-0.5,2.2c-0.1,0.4-0.3,0.9-0.4,1.3
			c0,0.1-0.3,0.3-0.5,0.3c-0.2,0-0.4-0.2-0.5-0.3c0-0.2-0.1-0.4-0.1-0.6c-0.1-1.9-0.2-3.8-0.3-5.7c0-0.8,0-1.6-0.2-2.4
			c0-0.1,0-0.2,0-0.3c-0.1-1.7-0.3-3.3-0.4-5c0-0.7-0.2-1.3-0.4-1.9"/>
	</g>
</g>
</svg>
