<?xml version="1.0" encoding="utf-8"?>
<!-- Svg Vector Icons : http://www.onlinewebfonts.com/icon -->
<!DOCTYPE svg PUBLIC "-//W3C//DTD SVG 1.1//EN" "http://www.w3.org/Graphics/SVG/1.1/DTD/svg11.dtd">
<svg version="1.1" xmlns="http://www.w3.org/2000/svg" xmlns:xlink="http://www.w3.org/1999/xlink" x="0px" y="0px" viewBox="0 0 1000 1000" enable-background="new 0 0 1000 1000" xml:space="preserve">
<metadata> Svg Vector Icons : http://www.onlinewebfonts.com/icon </metadata>
<g fill="#ffffff"><path d="M245,990c0.2,0,0.3,0,0.4,0c89.3,0,183.2-58.7,239.5-150.1c29.3-52,120.5-184.4,189.3-172.9c33.2,5.5,57.4,20.4,74.1,45.4c42.9,64.6,17.9,173.2,17.6,174.3c-2,8.4,3.2,16.7,11.5,18.7c8.3,1.9,16.7-3.2,18.7-11.5c1.2-5,28.5-122.7-21.9-198.6c-21.4-32.2-53.3-52.1-95-59c-102.5-17.2-209.7,167.3-221.2,187.8c-50.5,81.9-134,134.8-212.7,134.8c-0.1,0-0.3,0-0.4,0c-39.9-0.1-95.7-13.9-135.3-78.6c-0.3-0.5-26.4-47.7-14-88.9c4.8-15.9,14.6-28.6,29.8-38.6c18.4,17.3,43.8,28.6,75.7,33.8c1.5,0.2,3,0.4,4.5,0.4c5.8,0,11.5-1.8,16.3-5.2l368.6-262.6c27,9.4,56,14.6,86.1,14.6c144.4,0,261.9-117.5,261.9-261.9C938.6,127.5,821.2,10,676.8,10c-144.4,0-261.9,117.5-261.9,261.9c0,8.9,0.5,17.7,1.3,26.4L101.5,636.6c-3.3,3.5-5.6,7.8-6.7,12.5c-1.1,4.4-9.3,42.4,11.5,79.1c-20.1,13.9-33.7,32.1-40.3,54.2c-16.2,53.7,15.3,110.7,16.9,113.6C119.8,956.5,177.4,989.8,245,990z M676.8,66c113.5,0,205.8,92.3,205.8,205.8c0,61.5-27.1,116.8-70,154.5c-217.4-55.9-261.5-244.6-270.2-310.3C578.4,84.9,625.4,66,676.8,66z M515.9,143.6c16.8,82.1,73.7,245.1,264.6,306c-30.5,17.9-65.9,28.1-103.8,28.1c-113.5,0-205.8-92.3-205.8-205.8C470.9,223.4,487.8,178.8,515.9,143.6z M148.5,668.4l283.2-304.4c19.7,52.4,55.8,96.8,102,127.1L199.4,729.1c-20.1-4.9-34.3-13.3-42.4-25.3C148.4,691.2,147.9,676.4,148.5,668.4z"/></g>
</svg>