<?xml version="1.0" standalone="no"?>
<!DOCTYPE svg PUBLIC "-//W3C//DTD SVG 20010904//EN"
 "http://www.w3.org/TR/2001/REC-SVG-20010904/DTD/svg10.dtd">
<svg version="1.0" xmlns="http://www.w3.org/2000/svg"
 width="260.000000pt" height="260.000000pt" viewBox="0 0 260.000000 260.000000"
 preserveAspectRatio="xMidYMid meet">
<metadata>
Created by potrace 1.14, written by Peter Selinger 2001-2017
</metadata>
<g transform="translate(0.000000,260.000000) scale(0.100000,-0.100000)"
fill="#000000" stroke="none">
<path d="M1269 2413 c0 -5 -2 -17 -4 -28 -5 -31 -17 -118 -19 -140 -1 -11 -4
-24 -8 -30 -3 -5 -5 -22 -3 -37 2 -16 0 -28 -4 -28 -3 0 -6 -16 -5 -35 1 -19
-1 -37 -5 -39 -4 -3 -6 -23 -4 -45 1 -23 -2 -41 -6 -41 -4 0 -7 -17 -7 -37 0
-37 -11 -158 -20 -218 -3 -16 -5 -51 -5 -77 0 -27 -3 -48 -8 -48 -4 0 -4 -25
-1 -55 3 -30 2 -61 -3 -70 -4 -8 -10 -70 -13 -138 -9 -197 -13 -257 -24 -339
-6 -42 -10 -80 -9 -85 1 -4 0 -10 -1 -13 -1 -3 -4 -18 -6 -35 -1 -16 -5 -37
-7 -45 -2 -8 -7 -35 -11 -60 -11 -67 -14 -85 -16 -85 -1 0 -3 -13 -5 -30 -1
-16 -3 -30 -5 -30 -1 0 -3 -9 -5 -20 -6 -34 -10 -50 -16 -60 -4 -5 -5 -18 -4
-27 2 -10 -2 -18 -8 -18 -5 0 -8 -3 -4 -6 7 -7 -12 -64 -22 -64 -7 0 -8 22
-13 250 -3 127 -9 160 -27 160 -4 0 -16 -28 -26 -63 -11 -34 -23 -65 -28 -68
-5 -4 -4 -10 2 -13 6 -4 8 -13 4 -19 -4 -7 -8 -15 -9 -19 -1 -5 -2 -9 -4 -10
-5 -7 -12 -46 -13 -75 -1 -18 -4 -33 -7 -33 -4 0 -6 -10 -7 -22 0 -13 -4 -41
-9 -63 -4 -22 -8 -52 -7 -68 0 -25 -1 -26 -17 -12 -14 12 -18 43 -10 65 1 3 1
10 0 15 -5 16 -11 191 -13 336 -1 96 -5 139 -14 148 -7 6 -13 10 -14 9 0 -2
-2 -10 -4 -18 -2 -8 -11 -44 -20 -80 -8 -36 -18 -76 -20 -90 -2 -14 -7 -36
-10 -50 -4 -14 -8 -36 -10 -50 -2 -14 -4 -25 -5 -25 -3 0 -11 -38 -13 -62 -1
-13 -5 -23 -9 -23 -4 0 -7 -8 -8 -17 -2 -55 -6 -73 -13 -73 -5 0 -6 -4 -2 -9
3 -5 1 -12 -4 -16 -5 -3 -8 -14 -6 -25 3 -14 -2 -20 -15 -20 -13 0 -18 5 -13
16 10 27 9 314 -2 314 -5 0 -3 5 5 11 12 8 12 12 2 16 -10 4 -10 8 -1 19 9 11
8 14 -2 14 -11 0 -11 3 1 11 11 8 12 12 2 16 -6 2 -9 9 -6 15 3 5 7 45 8 87 1
65 -1 78 -14 76 -13 -2 -28 -40 -46 -125 -3 -14 -7 -32 -9 -40 -2 -8 -4 -17
-5 -20 -1 -3 -2 -8 -1 -12 0 -4 -10 -57 -24 -117 -13 -61 -26 -121 -27 -133
-2 -13 -7 -29 -12 -37 -7 -11 -6 -12 5 -6 11 7 12 6 2 -6 -6 -8 -13 -30 -15
-49 -3 -21 -10 -36 -20 -38 -14 -3 -21 39 -20 111 1 9 -4 17 -10 17 -7 0 -7 5
-1 12 5 7 8 22 7 33 -8 57 -26 290 -28 352 0 23 -3 39 -5 37 -2 -2 -10 1 -18
7 -10 9 -13 8 -14 -2 0 -8 -2 -32 -4 -54 -8 -76 -16 -180 -16 -197 0 -10 -3
-18 -7 -18 -4 0 -7 -17 -8 -37 0 -21 -3 -54 -7 -73 -4 -19 -12 -62 -18 -95 -6
-33 -15 -66 -21 -72 -7 -9 -7 -13 1 -13 7 0 4 -13 -6 -36 l-18 -36 -7 29 c-11
45 -38 319 -38 393 0 51 -4 69 -15 74 -10 4 -17 -3 -21 -22 -3 -15 -8 -35 -11
-44 -2 -10 -6 -30 -9 -44 -3 -15 -13 -43 -23 -63 -11 -20 -19 -40 -19 -45 0
-5 -7 -13 -16 -18 -9 -5 -14 -13 -11 -17 2 -5 -5 -11 -16 -14 -12 -3 -19 -9
-16 -14 8 -12 -44 -40 -71 -38 -17 1 -22 -4 -22 -22 0 -13 4 -23 10 -23 16 0
60 23 60 32 0 4 5 8 11 8 6 0 24 14 41 30 16 17 26 30 22 30 -5 0 2 7 14 16
12 8 20 19 17 24 -3 5 2 13 11 18 9 5 15 11 14 13 -3 8 12 39 19 39 3 0 6 -27
6 -60 0 -33 2 -60 5 -60 3 0 6 -17 7 -37 0 -21 4 -63 8 -93 4 -30 8 -61 8 -67
0 -7 3 -13 6 -13 3 0 7 -10 7 -22 5 -70 26 -92 48 -49 9 17 14 31 12 31 -3 0
-1 12 5 28 6 15 13 36 15 47 8 33 10 39 19 65 4 14 9 39 10 55 2 17 4 30 5 30
1 0 3 15 6 34 2 19 7 46 10 60 3 14 6 32 6 39 1 6 5 12 9 12 13 0 17 -24 7
-44 -7 -12 -7 -16 0 -12 5 3 10 -10 11 -32 3 -69 9 -137 11 -137 1 0 4 -38 5
-85 2 -47 4 -87 5 -90 1 -3 2 -21 2 -40 0 -44 6 -54 23 -40 12 10 27 62 39
130 2 14 9 39 16 55 6 17 11 31 10 33 -3 4 15 99 19 105 1 1 4 21 6 45 2 23 7
47 10 52 3 5 8 28 11 50 3 23 9 52 15 66 5 14 7 30 3 35 -3 5 1 9 9 9 11 0 14
-11 12 -42 -2 -24 -4 -43 -5 -43 -1 0 -3 -118 -4 -262 -1 -145 1 -263 4 -263
14 1 30 18 33 37 1 12 9 29 17 39 12 15 12 16 1 9 -11 -6 -12 -5 -5 6 5 8 14
37 20 64 6 28 18 73 26 101 8 29 13 59 12 68 -1 9 1 16 6 16 4 0 11 21 16 48
11 64 11 66 14 72 3 8 8 32 15 65 3 17 11 35 17 40 8 7 9 6 4 -2 -4 -8 -2 -13
6 -13 8 0 9 -3 3 -8 -12 -8 -13 -32 -2 -49 5 -7 5 -13 0 -13 -9 0 -8 -112 1
-170 3 -19 8 -60 11 -90 9 -93 29 -170 45 -170 10 0 23 35 25 70 7 109 35 263
49 272 8 5 7 8 -1 8 -9 0 -10 7 -3 25 5 14 9 29 9 33 -1 4 2 17 6 29 8 26 25
22 21 -5 -2 -9 0 -29 5 -44 5 -19 4 -28 -4 -28 -7 0 -6 -4 3 -10 11 -7 11 -10
2 -10 -7 0 -11 -3 -9 -8 3 -4 8 -47 11 -97 5 -68 11 -93 24 -103 15 -11 19 -8
33 26 10 22 27 75 38 118 12 44 24 86 28 94 3 8 7 29 9 45 2 17 7 37 10 45 4
8 8 26 9 40 6 72 19 136 29 142 7 5 6 8 -4 8 -13 0 -13 1 0 10 12 8 12 10 1
10 -10 0 -11 3 -3 13 6 7 11 30 10 52 0 22 3 52 6 66 3 14 8 70 12 125 6 106
10 175 19 294 3 41 8 104 10 140 3 36 7 94 10 130 3 36 7 85 10 110 2 25 4 45
5 45 1 0 4 20 5 45 2 25 6 70 10 100 4 30 8 69 9 85 1 17 6 41 10 54 6 18 5
22 -5 15 -11 -6 -12 -5 -2 7 6 8 12 17 12 22 1 4 1 10 2 15 1 4 0 17 -1 30 -1
12 3 22 8 22 10 0 10 29 0 46 -4 5 1 10 11 11 13 1 22 -11 32 -40 7 -23 27
-77 45 -119 18 -43 30 -78 28 -78 -2 0 5 -18 16 -40 11 -22 25 -39 31 -37 17
3 75 61 71 70 -2 4 2 7 8 7 13 0 100 90 100 103 0 5 5 5 10 2 6 -3 10 -1 10 4
0 6 5 11 11 11 6 0 9 -7 5 -15 -3 -8 -2 -15 2 -15 5 0 8 -55 7 -122 -1 -137 2
-158 20 -158 17 0 47 35 38 45 -5 4 -3 5 3 2 7 -4 36 17 65 45 30 29 58 52 62
50 5 -1 6 1 3 6 -3 5 8 16 23 25 29 17 29 17 36 -11 5 -15 10 -36 11 -47 2
-11 6 -31 8 -45 2 -14 5 -28 5 -32 2 -12 45 -53 61 -57 46 -13 162 -1 230 24
25 9 50 17 55 18 6 2 16 6 23 10 6 5 16 6 21 3 5 -3 11 1 15 9 3 8 14 15 25
15 11 0 23 5 26 10 4 6 11 8 16 5 5 -4 9 -1 9 4 0 6 9 11 20 11 11 0 20 5 20
11 0 5 4 8 9 4 5 -3 12 -1 16 5 4 6 10 8 15 5 5 -3 15 1 22 9 14 14 58 31 70
28 4 -1 5 5 2 13 -8 20 -26 19 -68 -6 -20 -12 -36 -17 -36 -12 0 4 -4 4 -8 -2
-7 -10 -75 -50 -79 -48 -7 4 -43 -11 -43 -17 0 -4 -8 -7 -17 -7 -10 0 -36 -8
-58 -17 -22 -10 -47 -20 -55 -21 -8 -2 -17 -4 -20 -5 -3 -1 -8 -2 -12 -1 -5 0
-8 -2 -8 -7 0 -4 -43 -8 -96 -10 -87 -3 -98 -1 -115 17 -13 14 -15 21 -7 21
10 0 10 2 0 9 -8 4 -12 17 -11 27 2 11 0 29 -5 41 -4 12 -9 32 -11 44 -3 13
-13 31 -23 42 -21 21 -21 21 -144 -93 -33 -30 -64 -56 -69 -58 -4 -2 -8 36 -8
85 0 110 -8 204 -19 215 -9 9 -92 -65 -92 -83 0 -7 -3 -9 -6 -6 -4 3 -35 -23
-69 -59 -47 -50 -64 -62 -72 -52 -12 16 -25 46 -30 73 -2 10 -7 22 -11 25 -9
6 -38 92 -34 103 1 4 -2 7 -8 7 -5 0 -10 7 -10 15 0 15 -4 26 -29 73 -6 13 -9
27 -6 32 4 6 1 10 -4 10 -6 0 -11 7 -11 15 0 15 -29 22 -31 8z m-639 -1613 c0
-5 -4 -10 -10 -10 -5 0 -10 5 -10 10 0 6 5 10 10 10 6 0 10 -4 10 -10z m-210
-102 c0 -19 -16 -5 -17 14 -2 18 0 20 7 8 5 -8 10 -18 10 -22z m80 -324 c0
-14 -3 -14 -15 -4 -8 7 -15 14 -15 16 0 2 7 4 15 4 8 0 15 -7 15 -16z m170 2
c0 -11 -19 -15 -25 -6 -3 5 1 10 9 10 9 0 16 -2 16 -4z"/>
</g>
</svg>
